<mxfile host="app.diagrams.net" agent="Mozilla/5.0 (X11; Linux x86_64) AppleWebKit/537.36 (KHTML, like Gecko) Chrome/126.0.0.0 Safari/537.36" version="24.7.5" pages="3">
  <diagram name="i/o" id="J3evb4or-3qP5S4ZiJqc">
    <mxGraphModel dx="1257" dy="687" grid="1" gridSize="10" guides="1" tooltips="1" connect="1" arrows="1" fold="1" page="1" pageScale="1" pageWidth="1100" pageHeight="850" math="0" shadow="0">
      <root>
        <mxCell id="0" />
        <mxCell id="1" parent="0" />
        <mxCell id="P0UdnnS8MxJ85r5FPCCL-1" value="&lt;font style=&quot;font-size: 16px;&quot;&gt;Seq_multiplier&lt;/font&gt;" style="rounded=0;whiteSpace=wrap;html=1;" vertex="1" parent="1">
          <mxGeometry x="450" y="80" width="190" height="300" as="geometry" />
        </mxCell>
        <mxCell id="P0UdnnS8MxJ85r5FPCCL-2" value="" style="endArrow=classic;html=1;rounded=0;" edge="1" parent="1">
          <mxGeometry relative="1" as="geometry">
            <mxPoint x="310" y="120" as="sourcePoint" />
            <mxPoint x="450" y="120" as="targetPoint" />
          </mxGeometry>
        </mxCell>
        <mxCell id="P0UdnnS8MxJ85r5FPCCL-3" value="A" style="edgeLabel;resizable=0;html=1;;align=center;verticalAlign=middle;" connectable="0" vertex="1" parent="P0UdnnS8MxJ85r5FPCCL-2">
          <mxGeometry relative="1" as="geometry">
            <mxPoint x="-70" as="offset" />
          </mxGeometry>
        </mxCell>
        <mxCell id="P0UdnnS8MxJ85r5FPCCL-5" value="" style="endArrow=classic;html=1;rounded=0;" edge="1" parent="1">
          <mxGeometry relative="1" as="geometry">
            <mxPoint x="310" y="160" as="sourcePoint" />
            <mxPoint x="450" y="160" as="targetPoint" />
          </mxGeometry>
        </mxCell>
        <mxCell id="P0UdnnS8MxJ85r5FPCCL-6" value="B" style="edgeLabel;resizable=0;html=1;;align=center;verticalAlign=middle;" connectable="0" vertex="1" parent="P0UdnnS8MxJ85r5FPCCL-5">
          <mxGeometry relative="1" as="geometry">
            <mxPoint x="-70" as="offset" />
          </mxGeometry>
        </mxCell>
        <mxCell id="P0UdnnS8MxJ85r5FPCCL-7" value="" style="endArrow=classic;html=1;rounded=0;" edge="1" parent="1">
          <mxGeometry relative="1" as="geometry">
            <mxPoint x="310" y="200" as="sourcePoint" />
            <mxPoint x="450" y="200" as="targetPoint" />
          </mxGeometry>
        </mxCell>
        <mxCell id="P0UdnnS8MxJ85r5FPCCL-8" value="START" style="edgeLabel;resizable=0;html=1;;align=center;verticalAlign=middle;" connectable="0" vertex="1" parent="P0UdnnS8MxJ85r5FPCCL-7">
          <mxGeometry relative="1" as="geometry">
            <mxPoint x="-60" as="offset" />
          </mxGeometry>
        </mxCell>
        <mxCell id="P0UdnnS8MxJ85r5FPCCL-9" value="" style="endArrow=classic;html=1;rounded=0;" edge="1" parent="1">
          <mxGeometry relative="1" as="geometry">
            <mxPoint x="640" y="120" as="sourcePoint" />
            <mxPoint x="780" y="120" as="targetPoint" />
          </mxGeometry>
        </mxCell>
        <mxCell id="P0UdnnS8MxJ85r5FPCCL-10" value="PRODUCT" style="edgeLabel;resizable=0;html=1;;align=center;verticalAlign=middle;" connectable="0" vertex="1" parent="P0UdnnS8MxJ85r5FPCCL-9">
          <mxGeometry relative="1" as="geometry">
            <mxPoint x="30" as="offset" />
          </mxGeometry>
        </mxCell>
        <mxCell id="P0UdnnS8MxJ85r5FPCCL-11" value="" style="endArrow=classic;html=1;rounded=0;" edge="1" parent="1">
          <mxGeometry relative="1" as="geometry">
            <mxPoint x="640" y="160" as="sourcePoint" />
            <mxPoint x="780" y="160" as="targetPoint" />
          </mxGeometry>
        </mxCell>
        <mxCell id="P0UdnnS8MxJ85r5FPCCL-12" value="READYO" style="edgeLabel;resizable=0;html=1;;align=center;verticalAlign=middle;" connectable="0" vertex="1" parent="P0UdnnS8MxJ85r5FPCCL-11">
          <mxGeometry relative="1" as="geometry">
            <mxPoint x="30" as="offset" />
          </mxGeometry>
        </mxCell>
        <mxCell id="P0UdnnS8MxJ85r5FPCCL-13" value="" style="endArrow=none;html=1;rounded=0;" edge="1" parent="1">
          <mxGeometry width="50" height="50" relative="1" as="geometry">
            <mxPoint x="380" y="125" as="sourcePoint" />
            <mxPoint x="390" y="115" as="targetPoint" />
          </mxGeometry>
        </mxCell>
        <mxCell id="P0UdnnS8MxJ85r5FPCCL-14" value="" style="endArrow=none;html=1;rounded=0;" edge="1" parent="1">
          <mxGeometry width="50" height="50" relative="1" as="geometry">
            <mxPoint x="380" y="165" as="sourcePoint" />
            <mxPoint x="390" y="155" as="targetPoint" />
          </mxGeometry>
        </mxCell>
        <mxCell id="P0UdnnS8MxJ85r5FPCCL-17" value="" style="endArrow=none;html=1;rounded=0;" edge="1" parent="1">
          <mxGeometry width="50" height="50" relative="1" as="geometry">
            <mxPoint x="670" y="125" as="sourcePoint" />
            <mxPoint x="680" y="115" as="targetPoint" />
          </mxGeometry>
        </mxCell>
        <mxCell id="P0UdnnS8MxJ85r5FPCCL-18" value="32" style="edgeLabel;resizable=0;html=1;;align=center;verticalAlign=middle;" connectable="0" vertex="1" parent="1">
          <mxGeometry x="680" y="110" as="geometry" />
        </mxCell>
        <mxCell id="P0UdnnS8MxJ85r5FPCCL-19" value="16" style="edgeLabel;resizable=0;html=1;;align=center;verticalAlign=middle;" connectable="0" vertex="1" parent="1">
          <mxGeometry x="390" y="110" as="geometry" />
        </mxCell>
        <mxCell id="P0UdnnS8MxJ85r5FPCCL-20" value="16" style="edgeLabel;resizable=0;html=1;;align=center;verticalAlign=middle;" connectable="0" vertex="1" parent="1">
          <mxGeometry x="380" y="150" as="geometry" />
        </mxCell>
        <mxCell id="P0UdnnS8MxJ85r5FPCCL-21" value="" style="triangle;whiteSpace=wrap;html=1;direction=north;" vertex="1" parent="1">
          <mxGeometry x="500" y="320" width="80" height="60" as="geometry" />
        </mxCell>
      </root>
    </mxGraphModel>
  </diagram>
  <diagram id="83YbNg-_z1bMitBrG-vC" name="data-path">
    <mxGraphModel dx="1354" dy="740" grid="1" gridSize="10" guides="1" tooltips="1" connect="1" arrows="1" fold="1" page="1" pageScale="1" pageWidth="1100" pageHeight="850" math="0" shadow="0">
      <root>
        <mxCell id="0" />
        <mxCell id="1" parent="0" />
        <mxCell id="z7PPE6cEein-chNzQrKY-3" style="edgeStyle=orthogonalEdgeStyle;rounded=0;orthogonalLoop=1;jettySize=auto;html=1;exitX=0;exitY=0.25;exitDx=0;exitDy=0;entryX=0;entryY=0.25;entryDx=0;entryDy=0;" edge="1" parent="1" target="z7PPE6cEein-chNzQrKY-1">
          <mxGeometry relative="1" as="geometry">
            <mxPoint x="30" y="210.25" as="sourcePoint" />
          </mxGeometry>
        </mxCell>
        <mxCell id="z7PPE6cEein-chNzQrKY-5" style="edgeStyle=orthogonalEdgeStyle;rounded=0;orthogonalLoop=1;jettySize=auto;html=1;exitX=1;exitY=0.25;exitDx=0;exitDy=0;" edge="1" parent="1" source="z7PPE6cEein-chNzQrKY-1">
          <mxGeometry relative="1" as="geometry">
            <mxPoint x="280" y="210.25" as="targetPoint" />
          </mxGeometry>
        </mxCell>
        <mxCell id="z7PPE6cEein-chNzQrKY-88" style="edgeStyle=orthogonalEdgeStyle;rounded=0;orthogonalLoop=1;jettySize=auto;html=1;exitX=0.25;exitY=1;exitDx=0;exitDy=0;entryX=0.084;entryY=1.004;entryDx=0;entryDy=0;entryPerimeter=0;" edge="1" parent="1" target="z7PPE6cEein-chNzQrKY-1">
          <mxGeometry relative="1" as="geometry">
            <mxPoint x="89.99999999999989" y="559.9999999999999" as="sourcePoint" />
            <Array as="points">
              <mxPoint x="91" y="560" />
              <mxPoint x="91" y="320" />
              <mxPoint x="117" y="320" />
              <mxPoint x="117" y="300" />
            </Array>
          </mxGeometry>
        </mxCell>
        <mxCell id="z7PPE6cEein-chNzQrKY-94" style="edgeStyle=orthogonalEdgeStyle;rounded=0;orthogonalLoop=1;jettySize=auto;html=1;exitX=0.75;exitY=1;exitDx=0;exitDy=0;entryX=0.75;entryY=1;entryDx=0;entryDy=0;" edge="1" parent="1" target="z7PPE6cEein-chNzQrKY-1">
          <mxGeometry relative="1" as="geometry">
            <mxPoint x="169.8965517241379" y="340" as="sourcePoint" />
          </mxGeometry>
        </mxCell>
        <mxCell id="z7PPE6cEein-chNzQrKY-1" value="Reg A" style="rounded=0;whiteSpace=wrap;html=1;" vertex="1" parent="1">
          <mxGeometry x="110" y="180" width="80" height="120" as="geometry" />
        </mxCell>
        <mxCell id="z7PPE6cEein-chNzQrKY-4" style="edgeStyle=orthogonalEdgeStyle;rounded=0;orthogonalLoop=1;jettySize=auto;html=1;exitX=0;exitY=0.25;exitDx=0;exitDy=0;entryX=0;entryY=0.25;entryDx=0;entryDy=0;" edge="1" parent="1" target="z7PPE6cEein-chNzQrKY-2">
          <mxGeometry relative="1" as="geometry">
            <mxPoint x="30" y="400.25" as="sourcePoint" />
          </mxGeometry>
        </mxCell>
        <mxCell id="z7PPE6cEein-chNzQrKY-47" style="edgeStyle=orthogonalEdgeStyle;rounded=0;orthogonalLoop=1;jettySize=auto;html=1;exitX=1;exitY=0.75;exitDx=0;exitDy=0;entryX=0.384;entryY=-0.02;entryDx=0;entryDy=0;entryPerimeter=0;" edge="1" parent="1" source="z7PPE6cEein-chNzQrKY-2" target="z7PPE6cEein-chNzQrKY-87">
          <mxGeometry relative="1" as="geometry">
            <mxPoint x="230" y="640" as="targetPoint" />
          </mxGeometry>
        </mxCell>
        <mxCell id="z7PPE6cEein-chNzQrKY-89" style="edgeStyle=orthogonalEdgeStyle;rounded=0;orthogonalLoop=1;jettySize=auto;html=1;entryX=0.072;entryY=1.012;entryDx=0;entryDy=0;entryPerimeter=0;" edge="1" parent="1" target="z7PPE6cEein-chNzQrKY-2">
          <mxGeometry relative="1" as="geometry">
            <mxPoint x="90" y="510" as="sourcePoint" />
            <Array as="points">
              <mxPoint x="116" y="510" />
              <mxPoint x="116" y="491" />
            </Array>
          </mxGeometry>
        </mxCell>
        <mxCell id="z7PPE6cEein-chNzQrKY-92" style="edgeStyle=orthogonalEdgeStyle;rounded=0;orthogonalLoop=1;jettySize=auto;html=1;entryX=0.25;entryY=1;entryDx=0;entryDy=0;" edge="1" parent="1" target="z7PPE6cEein-chNzQrKY-2">
          <mxGeometry relative="1" as="geometry">
            <mxPoint x="130" y="580" as="sourcePoint" />
          </mxGeometry>
        </mxCell>
        <mxCell id="z7PPE6cEein-chNzQrKY-2" value="Reg B&lt;div&gt;&lt;br&gt;&lt;/div&gt;&lt;div&gt;PISO&lt;/div&gt;" style="rounded=0;whiteSpace=wrap;html=1;" vertex="1" parent="1">
          <mxGeometry x="110" y="370" width="80" height="120" as="geometry" />
        </mxCell>
        <mxCell id="z7PPE6cEein-chNzQrKY-8" style="edgeStyle=orthogonalEdgeStyle;rounded=0;orthogonalLoop=1;jettySize=auto;html=1;exitX=1;exitY=0.5;exitDx=0;exitDy=0;entryX=0.75;entryY=1;entryDx=0;entryDy=0;" edge="1" parent="1" source="z7PPE6cEein-chNzQrKY-6" target="z7PPE6cEein-chNzQrKY-7">
          <mxGeometry relative="1" as="geometry" />
        </mxCell>
        <mxCell id="z7PPE6cEein-chNzQrKY-6" value="sign extension" style="rounded=0;whiteSpace=wrap;html=1;" vertex="1" parent="1">
          <mxGeometry x="280" y="200" width="80" height="20" as="geometry" />
        </mxCell>
        <mxCell id="z7PPE6cEein-chNzQrKY-9" style="edgeStyle=orthogonalEdgeStyle;rounded=0;orthogonalLoop=1;jettySize=auto;html=1;exitX=0.25;exitY=1;exitDx=0;exitDy=0;entryX=0.25;entryY=1;entryDx=0;entryDy=0;" edge="1" parent="1" target="z7PPE6cEein-chNzQrKY-7">
          <mxGeometry relative="1" as="geometry">
            <mxPoint x="390" y="150.28571428571433" as="sourcePoint" />
          </mxGeometry>
        </mxCell>
        <mxCell id="z7PPE6cEein-chNzQrKY-10" style="edgeStyle=orthogonalEdgeStyle;rounded=0;orthogonalLoop=1;jettySize=auto;html=1;exitX=0.5;exitY=0;exitDx=0;exitDy=0;entryX=0;entryY=0.5;entryDx=0;entryDy=0;" edge="1" parent="1" source="z7PPE6cEein-chNzQrKY-7" target="z7PPE6cEein-chNzQrKY-11">
          <mxGeometry relative="1" as="geometry">
            <mxPoint x="590" y="219.99999999999994" as="targetPoint" />
          </mxGeometry>
        </mxCell>
        <mxCell id="z7PPE6cEein-chNzQrKY-12" style="edgeStyle=orthogonalEdgeStyle;rounded=0;orthogonalLoop=1;jettySize=auto;html=1;exitX=0.5;exitY=0;exitDx=0;exitDy=0;" edge="1" parent="1" source="z7PPE6cEein-chNzQrKY-7">
          <mxGeometry relative="1" as="geometry">
            <mxPoint x="590" y="130.00000000000006" as="targetPoint" />
          </mxGeometry>
        </mxCell>
        <mxCell id="z7PPE6cEein-chNzQrKY-59" style="edgeStyle=orthogonalEdgeStyle;rounded=0;orthogonalLoop=1;jettySize=auto;html=1;exitX=1;exitY=0.5;exitDx=0;exitDy=0;entryX=1;entryY=0.5;entryDx=0;entryDy=0;" edge="1" parent="1" target="z7PPE6cEein-chNzQrKY-7">
          <mxGeometry relative="1" as="geometry">
            <mxPoint x="470" y="310" as="sourcePoint" />
          </mxGeometry>
        </mxCell>
        <mxCell id="z7PPE6cEein-chNzQrKY-7" value="" style="shape=trapezoid;perimeter=trapezoidPerimeter;whiteSpace=wrap;html=1;fixedSize=1;direction=south;" vertex="1" parent="1">
          <mxGeometry x="450" y="120" width="40" height="120" as="geometry" />
        </mxCell>
        <mxCell id="z7PPE6cEein-chNzQrKY-11" value="&amp;lt;&amp;lt; count" style="ellipse;whiteSpace=wrap;html=1;aspect=fixed;" vertex="1" parent="1">
          <mxGeometry x="590" y="230" width="40" height="40" as="geometry" />
        </mxCell>
        <mxCell id="z7PPE6cEein-chNzQrKY-15" style="edgeStyle=orthogonalEdgeStyle;rounded=0;orthogonalLoop=1;jettySize=auto;html=1;exitX=1;exitY=0.5;exitDx=0;exitDy=0;entryX=0;entryY=0.5;entryDx=0;entryDy=0;" edge="1" parent="1" source="z7PPE6cEein-chNzQrKY-13" target="z7PPE6cEein-chNzQrKY-14">
          <mxGeometry relative="1" as="geometry" />
        </mxCell>
        <mxCell id="z7PPE6cEein-chNzQrKY-13" value="2 complement" style="rounded=0;whiteSpace=wrap;html=1;" vertex="1" parent="1">
          <mxGeometry x="590" y="120" width="80" height="20" as="geometry" />
        </mxCell>
        <mxCell id="z7PPE6cEein-chNzQrKY-16" style="edgeStyle=orthogonalEdgeStyle;rounded=0;orthogonalLoop=1;jettySize=auto;html=1;exitX=1;exitY=0.5;exitDx=0;exitDy=0;" edge="1" parent="1" source="z7PPE6cEein-chNzQrKY-14">
          <mxGeometry relative="1" as="geometry">
            <mxPoint x="770" y="130.28571428571433" as="targetPoint" />
          </mxGeometry>
        </mxCell>
        <mxCell id="z7PPE6cEein-chNzQrKY-14" value="&amp;lt;&amp;lt; count" style="ellipse;whiteSpace=wrap;html=1;aspect=fixed;" vertex="1" parent="1">
          <mxGeometry x="700" y="110" width="40" height="40" as="geometry" />
        </mxCell>
        <mxCell id="z7PPE6cEein-chNzQrKY-19" style="edgeStyle=orthogonalEdgeStyle;rounded=0;orthogonalLoop=1;jettySize=auto;html=1;exitX=0.5;exitY=0;exitDx=0;exitDy=0;entryX=0.024;entryY=0.662;entryDx=0;entryDy=0;entryPerimeter=0;" edge="1" parent="1" source="z7PPE6cEein-chNzQrKY-17" target="z7PPE6cEein-chNzQrKY-20">
          <mxGeometry relative="1" as="geometry">
            <mxPoint x="870" y="189.99999999999994" as="targetPoint" />
          </mxGeometry>
        </mxCell>
        <mxCell id="z7PPE6cEein-chNzQrKY-64" style="edgeStyle=orthogonalEdgeStyle;rounded=0;orthogonalLoop=1;jettySize=auto;html=1;exitX=1;exitY=0.5;exitDx=0;exitDy=0;entryX=1;entryY=0.5;entryDx=0;entryDy=0;" edge="1" parent="1" target="z7PPE6cEein-chNzQrKY-17">
          <mxGeometry relative="1" as="geometry">
            <mxPoint x="790" y="320" as="sourcePoint" />
          </mxGeometry>
        </mxCell>
        <mxCell id="z7PPE6cEein-chNzQrKY-111" value="m2_sel" style="edgeLabel;html=1;align=center;verticalAlign=middle;resizable=0;points=[];" vertex="1" connectable="0" parent="z7PPE6cEein-chNzQrKY-64">
          <mxGeometry x="-0.9278" y="1" relative="1" as="geometry">
            <mxPoint as="offset" />
          </mxGeometry>
        </mxCell>
        <mxCell id="z7PPE6cEein-chNzQrKY-17" value="" style="shape=trapezoid;perimeter=trapezoidPerimeter;whiteSpace=wrap;html=1;fixedSize=1;direction=south;" vertex="1" parent="1">
          <mxGeometry x="770" y="110" width="40" height="160" as="geometry" />
        </mxCell>
        <mxCell id="z7PPE6cEein-chNzQrKY-18" style="edgeStyle=orthogonalEdgeStyle;rounded=0;orthogonalLoop=1;jettySize=auto;html=1;exitX=1;exitY=0.5;exitDx=0;exitDy=0;entryX=0.877;entryY=1;entryDx=0;entryDy=0;entryPerimeter=0;" edge="1" parent="1" source="z7PPE6cEein-chNzQrKY-11" target="z7PPE6cEein-chNzQrKY-17">
          <mxGeometry relative="1" as="geometry" />
        </mxCell>
        <mxCell id="z7PPE6cEein-chNzQrKY-21" style="edgeStyle=orthogonalEdgeStyle;rounded=0;orthogonalLoop=1;jettySize=auto;html=1;exitX=1;exitY=0.5;exitDx=0;exitDy=0;entryX=0;entryY=0.25;entryDx=0;entryDy=0;" edge="1" parent="1" source="z7PPE6cEein-chNzQrKY-20" target="z7PPE6cEein-chNzQrKY-22">
          <mxGeometry relative="1" as="geometry">
            <mxPoint x="990" y="175.28571428571433" as="targetPoint" />
          </mxGeometry>
        </mxCell>
        <mxCell id="z7PPE6cEein-chNzQrKY-20" value="32-bits&lt;div&gt;Ripple&amp;nbsp;&lt;div&gt;carry&amp;nbsp;&lt;/div&gt;&lt;div&gt;Adder&lt;/div&gt;&lt;/div&gt;" style="rounded=0;whiteSpace=wrap;html=1;" vertex="1" parent="1">
          <mxGeometry x="880" y="130" width="70" height="90" as="geometry" />
        </mxCell>
        <mxCell id="z7PPE6cEein-chNzQrKY-23" style="edgeStyle=orthogonalEdgeStyle;rounded=0;orthogonalLoop=1;jettySize=auto;html=1;exitX=1;exitY=0.25;exitDx=0;exitDy=0;entryX=0;entryY=0.25;entryDx=0;entryDy=0;" edge="1" parent="1" source="z7PPE6cEein-chNzQrKY-22" target="z7PPE6cEein-chNzQrKY-20">
          <mxGeometry relative="1" as="geometry">
            <Array as="points">
              <mxPoint x="1130" y="176" />
              <mxPoint x="1130" y="110" />
              <mxPoint x="850" y="110" />
              <mxPoint x="850" y="153" />
            </Array>
          </mxGeometry>
        </mxCell>
        <mxCell id="z7PPE6cEein-chNzQrKY-27" style="edgeStyle=orthogonalEdgeStyle;rounded=0;orthogonalLoop=1;jettySize=auto;html=1;exitX=1;exitY=0.25;exitDx=0;exitDy=0;entryX=0.75;entryY=1;entryDx=0;entryDy=0;" edge="1" parent="1" source="z7PPE6cEein-chNzQrKY-22" target="z7PPE6cEein-chNzQrKY-26">
          <mxGeometry relative="1" as="geometry">
            <Array as="points">
              <mxPoint x="1130" y="176" />
              <mxPoint x="1130" y="200" />
            </Array>
          </mxGeometry>
        </mxCell>
        <mxCell id="z7PPE6cEein-chNzQrKY-22" value="Pre&lt;div&gt;product&lt;/div&gt;" style="rounded=0;whiteSpace=wrap;html=1;" vertex="1" parent="1">
          <mxGeometry x="1040" y="149" width="70" height="107" as="geometry" />
        </mxCell>
        <mxCell id="z7PPE6cEein-chNzQrKY-25" value="" style="triangle;whiteSpace=wrap;html=1;direction=north;" vertex="1" parent="1">
          <mxGeometry x="1060" y="236" width="30" height="20" as="geometry" />
        </mxCell>
        <mxCell id="z7PPE6cEein-chNzQrKY-28" style="edgeStyle=orthogonalEdgeStyle;rounded=0;orthogonalLoop=1;jettySize=auto;html=1;exitX=0.25;exitY=1;exitDx=0;exitDy=0;entryX=0.25;entryY=1;entryDx=0;entryDy=0;" edge="1" parent="1" target="z7PPE6cEein-chNzQrKY-26">
          <mxGeometry relative="1" as="geometry">
            <mxPoint x="1180" y="140" as="sourcePoint" />
          </mxGeometry>
        </mxCell>
        <mxCell id="z7PPE6cEein-chNzQrKY-29" style="edgeStyle=orthogonalEdgeStyle;rounded=0;orthogonalLoop=1;jettySize=auto;html=1;exitX=0.5;exitY=0;exitDx=0;exitDy=0;" edge="1" parent="1" source="z7PPE6cEein-chNzQrKY-26">
          <mxGeometry relative="1" as="geometry">
            <mxPoint x="1340" y="170" as="targetPoint" />
          </mxGeometry>
        </mxCell>
        <mxCell id="z7PPE6cEein-chNzQrKY-112" style="edgeStyle=orthogonalEdgeStyle;rounded=0;orthogonalLoop=1;jettySize=auto;html=1;exitX=1;exitY=0.5;exitDx=0;exitDy=0;entryX=1;entryY=0.5;entryDx=0;entryDy=0;" edge="1" parent="1" target="z7PPE6cEein-chNzQrKY-26">
          <mxGeometry relative="1" as="geometry">
            <mxPoint x="1250" y="300" as="sourcePoint" />
          </mxGeometry>
        </mxCell>
        <mxCell id="z7PPE6cEein-chNzQrKY-113" value="READYO" style="edgeLabel;html=1;align=center;verticalAlign=middle;resizable=0;points=[];" vertex="1" connectable="0" parent="z7PPE6cEein-chNzQrKY-112">
          <mxGeometry x="-0.9652" relative="1" as="geometry">
            <mxPoint as="offset" />
          </mxGeometry>
        </mxCell>
        <mxCell id="z7PPE6cEein-chNzQrKY-26" value="" style="shape=trapezoid;perimeter=trapezoidPerimeter;whiteSpace=wrap;html=1;fixedSize=1;direction=south;" vertex="1" parent="1">
          <mxGeometry x="1230" y="110" width="40" height="120" as="geometry" />
        </mxCell>
        <mxCell id="z7PPE6cEein-chNzQrKY-34" style="edgeStyle=orthogonalEdgeStyle;rounded=0;orthogonalLoop=1;jettySize=auto;html=1;exitX=1;exitY=0.25;exitDx=0;exitDy=0;entryX=0.5;entryY=0;entryDx=0;entryDy=0;" edge="1" parent="1" source="z7PPE6cEein-chNzQrKY-30" target="z7PPE6cEein-chNzQrKY-32">
          <mxGeometry relative="1" as="geometry">
            <Array as="points">
              <mxPoint x="450" y="410" />
              <mxPoint x="450" y="360" />
              <mxPoint x="285" y="360" />
            </Array>
          </mxGeometry>
        </mxCell>
        <mxCell id="z7PPE6cEein-chNzQrKY-40" style="edgeStyle=orthogonalEdgeStyle;rounded=0;orthogonalLoop=1;jettySize=auto;html=1;exitX=1;exitY=0.25;exitDx=0;exitDy=0;entryX=0;entryY=0.5;entryDx=0;entryDy=0;" edge="1" parent="1" source="z7PPE6cEein-chNzQrKY-30" target="z7PPE6cEein-chNzQrKY-39">
          <mxGeometry relative="1" as="geometry">
            <Array as="points">
              <mxPoint x="570" y="410" />
              <mxPoint x="570" y="433" />
            </Array>
          </mxGeometry>
        </mxCell>
        <mxCell id="z7PPE6cEein-chNzQrKY-74" style="edgeStyle=orthogonalEdgeStyle;rounded=0;orthogonalLoop=1;jettySize=auto;html=1;exitX=1;exitY=0.25;exitDx=0;exitDy=0;entryX=0;entryY=0.5;entryDx=0;entryDy=0;" edge="1" parent="1" source="z7PPE6cEein-chNzQrKY-30" target="z7PPE6cEein-chNzQrKY-68">
          <mxGeometry relative="1" as="geometry">
            <Array as="points">
              <mxPoint x="450" y="410" />
              <mxPoint x="450" y="433" />
            </Array>
          </mxGeometry>
        </mxCell>
        <mxCell id="z7PPE6cEein-chNzQrKY-75" style="edgeStyle=orthogonalEdgeStyle;rounded=0;orthogonalLoop=1;jettySize=auto;html=1;exitX=1;exitY=0.25;exitDx=0;exitDy=0;" edge="1" parent="1" source="z7PPE6cEein-chNzQrKY-30">
          <mxGeometry relative="1" as="geometry">
            <mxPoint x="670" y="430" as="targetPoint" />
            <Array as="points">
              <mxPoint x="640" y="410" />
              <mxPoint x="640" y="430" />
            </Array>
          </mxGeometry>
        </mxCell>
        <mxCell id="z7PPE6cEein-chNzQrKY-30" value="4-bits&lt;div&gt;counter&lt;/div&gt;&lt;div&gt;reg&lt;/div&gt;" style="rounded=0;whiteSpace=wrap;html=1;" vertex="1" parent="1">
          <mxGeometry x="350" y="380" width="80" height="120" as="geometry" />
        </mxCell>
        <mxCell id="z7PPE6cEein-chNzQrKY-35" style="edgeStyle=orthogonalEdgeStyle;rounded=0;orthogonalLoop=1;jettySize=auto;html=1;exitX=0.5;exitY=1;exitDx=0;exitDy=0;entryX=0.5;entryY=1;entryDx=0;entryDy=0;" edge="1" parent="1" target="z7PPE6cEein-chNzQrKY-32">
          <mxGeometry relative="1" as="geometry">
            <mxPoint x="285.08333333333337" y="450" as="sourcePoint" />
          </mxGeometry>
        </mxCell>
        <mxCell id="z7PPE6cEein-chNzQrKY-32" value="&lt;font style=&quot;font-size: 14px;&quot;&gt;&lt;b&gt;+&lt;/b&gt;&lt;/font&gt;" style="ellipse;whiteSpace=wrap;html=1;aspect=fixed;" vertex="1" parent="1">
          <mxGeometry x="270" y="400" width="30" height="30" as="geometry" />
        </mxCell>
        <mxCell id="z7PPE6cEein-chNzQrKY-33" style="edgeStyle=orthogonalEdgeStyle;rounded=0;orthogonalLoop=1;jettySize=auto;html=1;exitX=1;exitY=0.5;exitDx=0;exitDy=0;entryX=0;entryY=0.292;entryDx=0;entryDy=0;entryPerimeter=0;" edge="1" parent="1" source="z7PPE6cEein-chNzQrKY-32" target="z7PPE6cEein-chNzQrKY-30">
          <mxGeometry relative="1" as="geometry" />
        </mxCell>
        <mxCell id="z7PPE6cEein-chNzQrKY-36" value="1" style="text;html=1;align=center;verticalAlign=middle;resizable=0;points=[];autosize=1;strokeColor=none;fillColor=none;" vertex="1" parent="1">
          <mxGeometry x="270" y="448" width="30" height="30" as="geometry" />
        </mxCell>
        <mxCell id="z7PPE6cEein-chNzQrKY-42" style="edgeStyle=orthogonalEdgeStyle;rounded=0;orthogonalLoop=1;jettySize=auto;html=1;exitX=0;exitY=1;exitDx=0;exitDy=0;entryX=0;entryY=1;entryDx=0;entryDy=0;" edge="1" parent="1" target="z7PPE6cEein-chNzQrKY-39">
          <mxGeometry relative="1" as="geometry">
            <mxPoint x="559.9999999999999" y="443.75" as="sourcePoint" />
          </mxGeometry>
        </mxCell>
        <mxCell id="z7PPE6cEein-chNzQrKY-70" style="edgeStyle=orthogonalEdgeStyle;rounded=0;orthogonalLoop=1;jettySize=auto;html=1;exitX=0.5;exitY=1;exitDx=0;exitDy=0;" edge="1" parent="1" source="z7PPE6cEein-chNzQrKY-39">
          <mxGeometry relative="1" as="geometry">
            <mxPoint x="560" y="490" as="targetPoint" />
          </mxGeometry>
        </mxCell>
        <mxCell id="z7PPE6cEein-chNzQrKY-39" value="&lt;font style=&quot;font-size: 14px;&quot;&gt;&lt;b&gt;&amp;lt;=&lt;/b&gt;&lt;/font&gt;" style="ellipse;whiteSpace=wrap;html=1;aspect=fixed;" vertex="1" parent="1">
          <mxGeometry x="590" y="418" width="30" height="30" as="geometry" />
        </mxCell>
        <mxCell id="z7PPE6cEein-chNzQrKY-45" value="15" style="edgeLabel;resizable=0;html=1;;align=center;verticalAlign=middle;" connectable="0" vertex="1" parent="1">
          <mxGeometry x="563.9999999999999" y="443" as="geometry" />
        </mxCell>
        <mxCell id="z7PPE6cEein-chNzQrKY-46" value="1" style="edgeLabel;resizable=0;html=1;;align=center;verticalAlign=middle;" connectable="0" vertex="1" parent="1">
          <mxGeometry x="473.9999999999999" y="445" as="geometry">
            <mxPoint x="2" y="-2" as="offset" />
          </mxGeometry>
        </mxCell>
        <mxCell id="z7PPE6cEein-chNzQrKY-48" value="B" style="edgeLabel;resizable=0;html=1;;align=center;verticalAlign=middle;" connectable="0" vertex="1" parent="1">
          <mxGeometry x="29.999999999999886" y="400" as="geometry">
            <mxPoint x="-1" y="1" as="offset" />
          </mxGeometry>
        </mxCell>
        <mxCell id="z7PPE6cEein-chNzQrKY-49" value="A" style="edgeLabel;resizable=0;html=1;;align=center;verticalAlign=middle;" connectable="0" vertex="1" parent="1">
          <mxGeometry x="29.999999999999886" y="210" as="geometry">
            <mxPoint x="-1" y="1" as="offset" />
          </mxGeometry>
        </mxCell>
        <mxCell id="z7PPE6cEein-chNzQrKY-50" value="" style="endArrow=none;html=1;rounded=0;" edge="1" parent="1">
          <mxGeometry width="50" height="50" relative="1" as="geometry">
            <mxPoint x="220" y="215" as="sourcePoint" />
            <mxPoint x="230" y="205" as="targetPoint" />
          </mxGeometry>
        </mxCell>
        <mxCell id="z7PPE6cEein-chNzQrKY-52" value="" style="endArrow=none;html=1;rounded=0;" edge="1" parent="1">
          <mxGeometry width="50" height="50" relative="1" as="geometry">
            <mxPoint x="390" y="215" as="sourcePoint" />
            <mxPoint x="400" y="205" as="targetPoint" />
          </mxGeometry>
        </mxCell>
        <mxCell id="z7PPE6cEein-chNzQrKY-53" value="" style="endArrow=none;html=1;rounded=0;" edge="1" parent="1">
          <mxGeometry width="50" height="50" relative="1" as="geometry">
            <mxPoint x="500" y="185" as="sourcePoint" />
            <mxPoint x="510" y="175" as="targetPoint" />
          </mxGeometry>
        </mxCell>
        <mxCell id="z7PPE6cEein-chNzQrKY-54" value="" style="endArrow=none;html=1;rounded=0;" edge="1" parent="1">
          <mxGeometry width="50" height="50" relative="1" as="geometry">
            <mxPoint x="830" y="195" as="sourcePoint" />
            <mxPoint x="840" y="185" as="targetPoint" />
          </mxGeometry>
        </mxCell>
        <mxCell id="z7PPE6cEein-chNzQrKY-55" value="" style="endArrow=none;html=1;rounded=0;" edge="1" parent="1">
          <mxGeometry width="50" height="50" relative="1" as="geometry">
            <mxPoint x="980" y="180" as="sourcePoint" />
            <mxPoint x="990" y="170" as="targetPoint" />
          </mxGeometry>
        </mxCell>
        <mxCell id="z7PPE6cEein-chNzQrKY-56" value="" style="endArrow=none;html=1;rounded=0;" edge="1" parent="1">
          <mxGeometry width="50" height="50" relative="1" as="geometry">
            <mxPoint x="1117" y="180" as="sourcePoint" />
            <mxPoint x="1127" y="170" as="targetPoint" />
          </mxGeometry>
        </mxCell>
        <mxCell id="z7PPE6cEein-chNzQrKY-57" value="" style="endArrow=none;html=1;rounded=0;" edge="1" parent="1">
          <mxGeometry width="50" height="50" relative="1" as="geometry">
            <mxPoint x="1300" y="175" as="sourcePoint" />
            <mxPoint x="1310" y="165" as="targetPoint" />
          </mxGeometry>
        </mxCell>
        <mxCell id="z7PPE6cEein-chNzQrKY-58" value="" style="triangle;whiteSpace=wrap;html=1;direction=north;" vertex="1" parent="1">
          <mxGeometry x="370" y="470" width="40" height="30" as="geometry" />
        </mxCell>
        <mxCell id="z7PPE6cEein-chNzQrKY-65" value="" style="triangle;whiteSpace=wrap;html=1;direction=north;" vertex="1" parent="1">
          <mxGeometry x="130" y="460" width="40" height="30" as="geometry" />
        </mxCell>
        <mxCell id="z7PPE6cEein-chNzQrKY-66" value="" style="triangle;whiteSpace=wrap;html=1;direction=north;" vertex="1" parent="1">
          <mxGeometry x="130" y="270" width="40" height="30" as="geometry" />
        </mxCell>
        <mxCell id="z7PPE6cEein-chNzQrKY-67" style="edgeStyle=orthogonalEdgeStyle;rounded=0;orthogonalLoop=1;jettySize=auto;html=1;exitX=0;exitY=1;exitDx=0;exitDy=0;entryX=0;entryY=1;entryDx=0;entryDy=0;" edge="1" target="z7PPE6cEein-chNzQrKY-68" parent="1">
          <mxGeometry relative="1" as="geometry">
            <mxPoint x="479.9999999999999" y="443.75" as="sourcePoint" />
          </mxGeometry>
        </mxCell>
        <mxCell id="z7PPE6cEein-chNzQrKY-69" style="edgeStyle=orthogonalEdgeStyle;rounded=0;orthogonalLoop=1;jettySize=auto;html=1;exitX=0.5;exitY=1;exitDx=0;exitDy=0;" edge="1" parent="1" source="z7PPE6cEein-chNzQrKY-68">
          <mxGeometry relative="1" as="geometry">
            <mxPoint x="540" y="490" as="targetPoint" />
          </mxGeometry>
        </mxCell>
        <mxCell id="z7PPE6cEein-chNzQrKY-68" value="&lt;font style=&quot;font-size: 14px;&quot;&gt;&lt;b&gt;&amp;gt;=&lt;/b&gt;&lt;/font&gt;" style="ellipse;whiteSpace=wrap;html=1;aspect=fixed;" vertex="1" parent="1">
          <mxGeometry x="510" y="418" width="30" height="30" as="geometry" />
        </mxCell>
        <mxCell id="z7PPE6cEein-chNzQrKY-72" style="edgeStyle=orthogonalEdgeStyle;rounded=0;orthogonalLoop=1;jettySize=auto;html=1;exitX=1;exitY=0.5;exitDx=0;exitDy=0;exitPerimeter=0;" edge="1" parent="1" source="z7PPE6cEein-chNzQrKY-71" target="z7PPE6cEein-chNzQrKY-73">
          <mxGeometry relative="1" as="geometry">
            <mxPoint x="550.1162790697675" y="550" as="targetPoint" />
          </mxGeometry>
        </mxCell>
        <mxCell id="z7PPE6cEein-chNzQrKY-71" value="" style="shape=xor;whiteSpace=wrap;html=1;direction=south;" vertex="1" parent="1">
          <mxGeometry x="530" y="485" width="40" height="30" as="geometry" />
        </mxCell>
        <mxCell id="z7PPE6cEein-chNzQrKY-73" value="count_sh" style="text;html=1;align=center;verticalAlign=middle;resizable=0;points=[];autosize=1;strokeColor=none;fillColor=none;" vertex="1" parent="1">
          <mxGeometry x="515" y="660" width="70" height="30" as="geometry" />
        </mxCell>
        <mxCell id="z7PPE6cEein-chNzQrKY-76" style="edgeStyle=orthogonalEdgeStyle;rounded=0;orthogonalLoop=1;jettySize=auto;html=1;exitX=0;exitY=1;exitDx=0;exitDy=0;entryX=0;entryY=1;entryDx=0;entryDy=0;" edge="1" target="z7PPE6cEein-chNzQrKY-77" parent="1">
          <mxGeometry relative="1" as="geometry">
            <mxPoint x="639.9999999999999" y="443.75" as="sourcePoint" />
          </mxGeometry>
        </mxCell>
        <mxCell id="z7PPE6cEein-chNzQrKY-79" style="edgeStyle=orthogonalEdgeStyle;rounded=0;orthogonalLoop=1;jettySize=auto;html=1;exitX=0.5;exitY=1;exitDx=0;exitDy=0;entryX=0.424;entryY=0.038;entryDx=0;entryDy=0;entryPerimeter=0;" edge="1" parent="1" source="z7PPE6cEein-chNzQrKY-77" target="z7PPE6cEein-chNzQrKY-80">
          <mxGeometry relative="1" as="geometry">
            <mxPoint x="685" y="650" as="targetPoint" />
          </mxGeometry>
        </mxCell>
        <mxCell id="z7PPE6cEein-chNzQrKY-77" value="&lt;font style=&quot;font-size: 14px;&quot;&gt;&lt;b&gt;==&lt;/b&gt;&lt;/font&gt;" style="ellipse;whiteSpace=wrap;html=1;aspect=fixed;" vertex="1" parent="1">
          <mxGeometry x="670" y="418" width="30" height="30" as="geometry" />
        </mxCell>
        <mxCell id="z7PPE6cEein-chNzQrKY-78" value="15" style="edgeLabel;resizable=0;html=1;;align=center;verticalAlign=middle;" connectable="0" vertex="1" parent="1">
          <mxGeometry x="643.9999999999999" y="443" as="geometry" />
        </mxCell>
        <mxCell id="z7PPE6cEein-chNzQrKY-80" value="last_bit" style="text;html=1;align=center;verticalAlign=middle;resizable=0;points=[];autosize=1;strokeColor=none;fillColor=none;" vertex="1" parent="1">
          <mxGeometry x="660" y="660" width="60" height="30" as="geometry" />
        </mxCell>
        <mxCell id="z7PPE6cEein-chNzQrKY-81" value="&lt;font style=&quot;font-size: 14px;&quot;&gt;&lt;b&gt;==&lt;/b&gt;&lt;/font&gt;" style="ellipse;whiteSpace=wrap;html=1;aspect=fixed;" vertex="1" parent="1">
          <mxGeometry x="750" y="419" width="30" height="30" as="geometry" />
        </mxCell>
        <mxCell id="z7PPE6cEein-chNzQrKY-82" style="edgeStyle=orthogonalEdgeStyle;rounded=0;orthogonalLoop=1;jettySize=auto;html=1;exitX=0.5;exitY=1;exitDx=0;exitDy=0;entryX=0.486;entryY=0.064;entryDx=0;entryDy=0;entryPerimeter=0;" edge="1" source="z7PPE6cEein-chNzQrKY-81" parent="1" target="z7PPE6cEein-chNzQrKY-86">
          <mxGeometry relative="1" as="geometry">
            <mxPoint x="764.8095238095239" y="551" as="targetPoint" />
          </mxGeometry>
        </mxCell>
        <mxCell id="z7PPE6cEein-chNzQrKY-83" style="edgeStyle=orthogonalEdgeStyle;rounded=0;orthogonalLoop=1;jettySize=auto;html=1;exitX=0;exitY=1;exitDx=0;exitDy=0;entryX=0;entryY=1;entryDx=0;entryDy=0;" edge="1" target="z7PPE6cEein-chNzQrKY-81" parent="1">
          <mxGeometry relative="1" as="geometry">
            <mxPoint x="719.9999999999999" y="444.75" as="sourcePoint" />
          </mxGeometry>
        </mxCell>
        <mxCell id="z7PPE6cEein-chNzQrKY-84" style="edgeStyle=orthogonalEdgeStyle;rounded=0;orthogonalLoop=1;jettySize=auto;html=1;exitX=1;exitY=0.25;exitDx=0;exitDy=0;entryX=0.043;entryY=0.3;entryDx=0;entryDy=0;entryPerimeter=0;" edge="1" parent="1" source="z7PPE6cEein-chNzQrKY-30" target="z7PPE6cEein-chNzQrKY-81">
          <mxGeometry relative="1" as="geometry">
            <Array as="points">
              <mxPoint x="720" y="410" />
              <mxPoint x="720" y="428" />
            </Array>
          </mxGeometry>
        </mxCell>
        <mxCell id="z7PPE6cEein-chNzQrKY-85" value="16" style="edgeLabel;resizable=0;html=1;;align=center;verticalAlign=middle;" connectable="0" vertex="1" parent="1">
          <mxGeometry x="719.9999999999999" y="445" as="geometry">
            <mxPoint x="2" y="-1" as="offset" />
          </mxGeometry>
        </mxCell>
        <mxCell id="z7PPE6cEein-chNzQrKY-86" value="stop" style="text;html=1;align=center;verticalAlign=middle;resizable=0;points=[];autosize=1;strokeColor=none;fillColor=none;" vertex="1" parent="1">
          <mxGeometry x="740" y="660" width="50" height="30" as="geometry" />
        </mxCell>
        <mxCell id="z7PPE6cEein-chNzQrKY-87" value="b_val" style="text;html=1;align=center;verticalAlign=middle;resizable=0;points=[];autosize=1;strokeColor=none;fillColor=none;" vertex="1" parent="1">
          <mxGeometry x="210" y="660" width="50" height="30" as="geometry" />
        </mxCell>
        <mxCell id="z7PPE6cEein-chNzQrKY-90" value="" style="endArrow=classic;html=1;rounded=0;" edge="1" parent="1">
          <mxGeometry relative="1" as="geometry">
            <mxPoint x="91" y="560" as="sourcePoint" />
            <mxPoint x="91" y="520" as="targetPoint" />
          </mxGeometry>
        </mxCell>
        <mxCell id="z7PPE6cEein-chNzQrKY-91" value="load_en" style="edgeLabel;resizable=0;html=1;;align=center;verticalAlign=middle;" connectable="0" vertex="1" parent="z7PPE6cEein-chNzQrKY-90">
          <mxGeometry relative="1" as="geometry">
            <mxPoint y="23" as="offset" />
          </mxGeometry>
        </mxCell>
        <mxCell id="z7PPE6cEein-chNzQrKY-93" value="shift_en" style="edgeLabel;resizable=0;html=1;;align=center;verticalAlign=middle;" connectable="0" vertex="1" parent="z7PPE6cEein-chNzQrKY-90">
          <mxGeometry relative="1" as="geometry">
            <mxPoint x="39" y="38" as="offset" />
          </mxGeometry>
        </mxCell>
        <mxCell id="z7PPE6cEein-chNzQrKY-96" value="RST" style="edgeLabel;resizable=0;html=1;;align=center;verticalAlign=middle;" connectable="0" vertex="1" parent="z7PPE6cEein-chNzQrKY-90">
          <mxGeometry relative="1" as="geometry">
            <mxPoint x="77" y="-202" as="offset" />
          </mxGeometry>
        </mxCell>
        <mxCell id="z7PPE6cEein-chNzQrKY-98" value="RST" style="edgeLabel;resizable=0;html=1;;align=center;verticalAlign=middle;" connectable="0" vertex="1" parent="z7PPE6cEein-chNzQrKY-90">
          <mxGeometry relative="1" as="geometry">
            <mxPoint x="89" y="-12" as="offset" />
          </mxGeometry>
        </mxCell>
        <mxCell id="z7PPE6cEein-chNzQrKY-100" value="RST" style="edgeLabel;resizable=0;html=1;;align=center;verticalAlign=middle;" connectable="0" vertex="1" parent="z7PPE6cEein-chNzQrKY-90">
          <mxGeometry relative="1" as="geometry">
            <mxPoint x="329" y="-2" as="offset" />
          </mxGeometry>
        </mxCell>
        <mxCell id="z7PPE6cEein-chNzQrKY-108" value="RST" style="edgeLabel;resizable=0;html=1;;align=center;verticalAlign=middle;" connectable="0" vertex="1" parent="z7PPE6cEein-chNzQrKY-90">
          <mxGeometry relative="1" as="geometry">
            <mxPoint x="1013" y="-244" as="offset" />
          </mxGeometry>
        </mxCell>
        <mxCell id="z7PPE6cEein-chNzQrKY-97" style="edgeStyle=orthogonalEdgeStyle;rounded=0;orthogonalLoop=1;jettySize=auto;html=1;exitX=0.75;exitY=1;exitDx=0;exitDy=0;entryX=0.75;entryY=1;entryDx=0;entryDy=0;" edge="1" parent="1">
          <mxGeometry relative="1" as="geometry">
            <mxPoint x="182" y="490" as="targetPoint" />
            <mxPoint x="181.8965517241379" y="530" as="sourcePoint" />
          </mxGeometry>
        </mxCell>
        <mxCell id="z7PPE6cEein-chNzQrKY-99" style="edgeStyle=orthogonalEdgeStyle;rounded=0;orthogonalLoop=1;jettySize=auto;html=1;exitX=0.75;exitY=1;exitDx=0;exitDy=0;entryX=0.75;entryY=1;entryDx=0;entryDy=0;" edge="1" parent="1">
          <mxGeometry relative="1" as="geometry">
            <mxPoint x="422" y="500" as="targetPoint" />
            <mxPoint x="421.8965517241379" y="540" as="sourcePoint" />
          </mxGeometry>
        </mxCell>
        <mxCell id="z7PPE6cEein-chNzQrKY-107" style="edgeStyle=orthogonalEdgeStyle;rounded=0;orthogonalLoop=1;jettySize=auto;html=1;entryX=0.75;entryY=1;entryDx=0;entryDy=0;" edge="1" parent="1">
          <mxGeometry relative="1" as="geometry">
            <mxPoint x="1102" y="255" as="targetPoint" />
            <mxPoint x="1102" y="290" as="sourcePoint" />
          </mxGeometry>
        </mxCell>
        <mxCell id="z7PPE6cEein-chNzQrKY-109" value="32&#39;h0" style="text;html=1;align=center;verticalAlign=middle;resizable=0;points=[];autosize=1;strokeColor=none;fillColor=none;" vertex="1" parent="1">
          <mxGeometry x="345" y="138" width="50" height="30" as="geometry" />
        </mxCell>
        <mxCell id="z7PPE6cEein-chNzQrKY-110" value="m1_sel" style="text;html=1;align=center;verticalAlign=middle;resizable=0;points=[];autosize=1;strokeColor=none;fillColor=none;" vertex="1" parent="1">
          <mxGeometry x="440" y="298" width="60" height="30" as="geometry" />
        </mxCell>
        <mxCell id="z7PPE6cEein-chNzQrKY-114" value="32&#39;h0" style="text;html=1;align=center;verticalAlign=middle;resizable=0;points=[];autosize=1;strokeColor=none;fillColor=none;" vertex="1" parent="1">
          <mxGeometry x="1142" y="124" width="50" height="30" as="geometry" />
        </mxCell>
      </root>
    </mxGraphModel>
  </diagram>
  <diagram id="1WBpLS2PG3iU1MskDgej" name="controller">
    <mxGraphModel dx="880" dy="481" grid="1" gridSize="10" guides="1" tooltips="1" connect="1" arrows="1" fold="1" page="1" pageScale="1" pageWidth="1100" pageHeight="850" math="0" shadow="0">
      <root>
        <mxCell id="0" />
        <mxCell id="1" parent="0" />
        <mxCell id="xDBLCZakVgOu3ze_JgLZ-3" style="edgeStyle=orthogonalEdgeStyle;rounded=0;orthogonalLoop=1;jettySize=auto;html=1;exitX=1;exitY=0;exitDx=0;exitDy=0;entryX=0.5;entryY=0;entryDx=0;entryDy=0;curved=1;" edge="1" parent="1" source="xDBLCZakVgOu3ze_JgLZ-1" target="xDBLCZakVgOu3ze_JgLZ-2">
          <mxGeometry relative="1" as="geometry" />
        </mxCell>
        <mxCell id="GypWhREqr5uuwhdQMJmq-1" style="edgeStyle=orthogonalEdgeStyle;rounded=0;orthogonalLoop=1;jettySize=auto;html=1;exitX=0.5;exitY=0;exitDx=0;exitDy=0;entryX=0.5;entryY=0;entryDx=0;entryDy=0;" edge="1" parent="1" target="xDBLCZakVgOu3ze_JgLZ-1">
          <mxGeometry relative="1" as="geometry">
            <mxPoint x="290" y="80" as="sourcePoint" />
          </mxGeometry>
        </mxCell>
        <mxCell id="xDBLCZakVgOu3ze_JgLZ-1" value="&lt;font style=&quot;font-size: 14px;&quot;&gt;&lt;b&gt;S0&lt;/b&gt;&lt;/font&gt;" style="ellipse;whiteSpace=wrap;html=1;aspect=fixed;" vertex="1" parent="1">
          <mxGeometry x="320" y="130" width="60" height="60" as="geometry" />
        </mxCell>
        <mxCell id="xDBLCZakVgOu3ze_JgLZ-4" style="edgeStyle=orthogonalEdgeStyle;rounded=0;orthogonalLoop=1;jettySize=auto;html=1;exitX=0;exitY=1;exitDx=0;exitDy=0;entryX=1;entryY=1;entryDx=0;entryDy=0;curved=1;" edge="1" parent="1" source="xDBLCZakVgOu3ze_JgLZ-2" target="xDBLCZakVgOu3ze_JgLZ-1">
          <mxGeometry relative="1" as="geometry" />
        </mxCell>
        <mxCell id="xDBLCZakVgOu3ze_JgLZ-2" value="&lt;font style=&quot;font-size: 14px;&quot;&gt;&lt;b&gt;S0&lt;/b&gt;&lt;/font&gt;" style="ellipse;whiteSpace=wrap;html=1;aspect=fixed;" vertex="1" parent="1">
          <mxGeometry x="690" y="280" width="60" height="60" as="geometry" />
        </mxCell>
        <mxCell id="GypWhREqr5uuwhdQMJmq-2" value="RST" style="text;html=1;align=center;verticalAlign=middle;resizable=0;points=[];autosize=1;strokeColor=none;fillColor=none;" vertex="1" parent="1">
          <mxGeometry x="240" y="68" width="50" height="30" as="geometry" />
        </mxCell>
        <mxCell id="GypWhREqr5uuwhdQMJmq-3" value="START / load_en, count_en" style="text;html=1;align=center;verticalAlign=middle;resizable=0;points=[];autosize=1;strokeColor=none;fillColor=none;" vertex="1" parent="1">
          <mxGeometry x="490" y="120" width="170" height="30" as="geometry" />
        </mxCell>
        <mxCell id="GypWhREqr5uuwhdQMJmq-4" style="edgeStyle=orthogonalEdgeStyle;rounded=0;orthogonalLoop=1;jettySize=auto;html=1;exitX=1;exitY=0;exitDx=0;exitDy=0;entryX=0.5;entryY=1;entryDx=0;entryDy=0;curved=1;" edge="1" parent="1" source="xDBLCZakVgOu3ze_JgLZ-2" target="xDBLCZakVgOu3ze_JgLZ-2">
          <mxGeometry relative="1" as="geometry">
            <Array as="points">
              <mxPoint x="741" y="280" />
              <mxPoint x="780" y="280" />
              <mxPoint x="780" y="390" />
              <mxPoint x="720" y="390" />
            </Array>
          </mxGeometry>
        </mxCell>
        <mxCell id="GypWhREqr5uuwhdQMJmq-6" value="b_val / m1_sel&lt;div&gt;!(b_val) / !(m1_sel)&lt;/div&gt;&lt;div&gt;&lt;br&gt;&lt;/div&gt;&lt;div&gt;count_sh / Shift_en&lt;/div&gt;&lt;div&gt;!(count_sh) / !(shift_en)&lt;/div&gt;&lt;div&gt;&lt;br&gt;&lt;/div&gt;&lt;div&gt;last_bit / m2_sel&lt;/div&gt;&lt;div&gt;!(last_bit) / !(m2_sel)&lt;/div&gt;&lt;div&gt;&lt;br&gt;&lt;/div&gt;&lt;div&gt;!(load_en)&lt;/div&gt;&lt;div&gt;&lt;br&gt;&lt;/div&gt;&lt;div&gt;!(stop) / !(READYO)&lt;/div&gt;" style="text;html=1;align=center;verticalAlign=middle;resizable=0;points=[];autosize=1;strokeColor=none;fillColor=none;" vertex="1" parent="1">
          <mxGeometry x="780" y="235" width="150" height="190" as="geometry" />
        </mxCell>
        <mxCell id="GypWhREqr5uuwhdQMJmq-7" value="stop / READYO" style="text;html=1;align=center;verticalAlign=middle;resizable=0;points=[];autosize=1;strokeColor=none;fillColor=none;" vertex="1" parent="1">
          <mxGeometry x="440" y="270" width="110" height="30" as="geometry" />
        </mxCell>
      </root>
    </mxGraphModel>
  </diagram>
</mxfile>
